<svg xmlns="http://www.w3.org/2000/svg" viewBox="0 0 45.04 38.74"><path d="M22.52 0 12.19 12.77h20.67L22.52 0zM11.92 25.17H8.39v11.6c0 .67-.15 1.16-.45 1.49-.3.32-.68.48-1.15.48s-.87-.16-1.17-.49c-.3-.33-.45-.82-.45-1.48v-11.6H1.63c-.55 0-.96-.12-1.23-.36s-.4-.57-.4-.96.14-.74.42-.98.68-.36 1.21-.36h10.28c.56 0 .97.12 1.25.37s.41.57.41.97-.14.72-.41.96-.69.36-1.24.36ZM22.22 22.23c1.66 0 3.08.34 4.27 1.01 1.19.67 2.09 1.63 2.7 2.86.61 1.24.92 2.69.92 4.36 0 1.23-.17 2.36-.5 3.37a7.345 7.345 0 0 1-1.5 2.63c-.67.74-1.49 1.31-2.46 1.7-.97.39-2.09.59-3.34.59s-2.37-.2-3.36-.6c-.99-.4-1.81-.97-2.47-1.7-.66-.73-1.16-1.62-1.5-2.65-.34-1.03-.51-2.15-.51-3.34s.18-2.35.53-3.38c.35-1.02.86-1.89 1.53-2.61s1.48-1.27 2.44-1.65 2.05-.57 3.27-.57Zm4.6 8.21c0-1.17-.19-2.18-.57-3.04s-.92-1.51-1.62-1.94c-.7-.44-1.51-.66-2.41-.66-.65 0-1.24.12-1.79.36s-1.02.6-1.42 1.06-.71 1.06-.94 1.78c-.23.72-.34 1.53-.34 2.44s.11 1.73.34 2.46c.23.73.55 1.34.97 1.82.42.48.9.84 1.44 1.08.54.24 1.14.36 1.78.36.83 0 1.59-.21 2.28-.62s1.25-1.05 1.66-1.92.62-1.93.62-3.19ZM39.06 32.25H36.1v4.52c0 .65-.15 1.14-.46 1.47-.31.33-.69.5-1.16.5s-.88-.17-1.18-.5c-.3-.33-.45-.82-.45-1.45V24.48c0-.71.16-1.22.49-1.53.33-.31.85-.46 1.56-.46h4.15c1.23 0 2.17.09 2.83.28.65.18 1.22.48 1.69.9s.84.94 1.08 1.55.37 1.3.37 2.06c0 1.63-.5 2.86-1.5 3.7-1 .84-2.49 1.26-4.48 1.26Zm-.78-7.32H36.1v4.88h2.18c.76 0 1.4-.08 1.91-.24.51-.16.9-.42 1.17-.78.27-.36.4-.84.4-1.43 0-.7-.21-1.28-.62-1.72-.46-.47-1.42-.71-2.87-.71Z" style="fill:#fff;stroke-width:0"/></svg>